<svg width="46" height="50" viewBox="0 0 46 50" fill="none" xmlns="http://www.w3.org/2000/svg">
<path fill-rule="evenodd" clip-rule="evenodd" d="M15.391 46.6598C10.9986 45.437 6.4 44.8201 1.93904 44.2549C0.978214 44.1365 0.0861547 44.7976 0.0175245 45.7291C-0.119736 46.6612 0.566969 47.5137 1.45916 47.6321C5.78287 48.1762 10.2434 48.7583 14.4299 49.9356C15.3221 50.1909 16.2833 49.6653 16.5578 48.7611C16.8323 47.8575 16.2832 46.9159 15.391 46.6598Z" fill="#F39C12"/>
<path fill-rule="evenodd" clip-rule="evenodd" d="M28.7047 29.3223C21.6358 22.1655 13.6747 15.9299 6.74301 8.5811C6.12534 7.89477 5.02726 7.858 4.34095 8.49871C3.65465 9.14011 3.58629 10.2186 4.27259 10.905C11.2042 18.2749 19.1654 24.5309 26.2343 31.7088C26.9206 32.3788 28.0184 32.3884 28.7047 31.7293C29.3224 31.0708 29.391 29.9923 28.7047 29.3223Z" fill="#F39C12"/>
<path fill-rule="evenodd" clip-rule="evenodd" d="M41.9512 1.79466C42.1571 5.89088 42.3626 9.98711 42.5685 14.084C42.5685 15.0223 43.3925 15.7467 44.3533 15.7011C45.3141 15.6548 46 14.8561 46 13.9172C45.7941 9.81417 45.5886 5.71181 45.3828 1.60946C45.3141 0.671191 44.4904 -0.0485087 43.5296 0.00255798C42.6374 0.0536246 41.8826 0.857076 41.9512 1.79466Z" fill="#F39C12"/>
</svg>
