<svg width="175" height="24" viewBox="0 0 175 24" fill="none" xmlns="http://www.w3.org/2000/svg">
<path fill-rule="evenodd" clip-rule="evenodd" d="M46.6435 14.1335C39.125 16.3024 30.4446 18.4608 22.094 18.9997C14.9566 19.4597 8.06248 18.7452 2.41957 15.7053C1.62412 15.2773 0.628006 15.5716 0.19782 16.3637C-0.233022 17.1551 0.0633837 18.1463 0.858834 18.575C7.01456 21.8902 14.5205 22.7574 22.3058 22.255C30.8066 21.7069 39.6438 19.5341 47.313 17.3339C48.2029 19.1276 50.0456 20.7999 53.2917 22.0337C58.2775 23.9292 65.085 23.9057 72.2566 22.8376C82.6577 21.2892 93.8465 17.5969 101.04 14.9733C101.335 14.8662 101.775 14.696 102.313 14.4715C102.476 14.8317 102.66 15.1866 102.863 15.5351C104.627 18.5717 107.749 21.027 110.929 21.9039C131.101 27.4643 154.643 20.8019 173.811 15.3797C174.677 15.1338 175.182 14.2308 174.939 13.3649C174.69 12.4991 173.785 11.996 172.913 12.242C154.282 17.5127 131.409 24.1628 111.802 18.7596C109.388 18.0941 107.041 16.2071 105.703 13.9025C105.552 13.6455 105.421 13.3825 105.296 13.1157C107.939 11.8127 111.047 9.99615 112.72 8.05176C114.438 6.05844 114.864 3.9307 113.369 1.92106C112.084 0.203083 110.136 0.0569249 108.11 0.94756C105.926 1.90149 103.677 4.13163 102.949 5.17821C101.585 7.13304 101.152 9.25362 101.401 11.3213C100.758 11.5915 100.236 11.7924 99.9144 11.9099C92.878 14.4754 81.9416 18.0967 71.7713 19.6111C65.2273 20.5859 59.0113 20.7157 54.4616 18.9867C52.5211 18.2487 51.2391 17.3875 50.5433 16.3879C51.9165 15.9794 53.2405 15.5775 54.5055 15.1938C57.0073 14.435 62.2161 13.179 65.9376 10.9403C68.897 9.16033 70.9037 6.73897 70.787 3.70364C70.7273 2.14421 69.8204 1.10348 68.377 0.520167C66.2202 -0.350894 62.4902 0.0705989 61.1012 0.364215C56.8886 1.25289 51.266 4.93159 48.4842 9.0768C47.374 10.7308 46.7136 12.4612 46.6435 14.1335ZM50.1039 13.1143C51.2942 12.7581 52.4444 12.4083 53.5494 12.073C55.8846 11.3644 60.7661 10.2388 64.2411 8.1483C66.0811 7.04169 67.5835 5.71587 67.5107 3.82825C67.5048 3.68144 67.3586 3.63969 67.2294 3.57966C67.0294 3.48766 66.8005 3.42436 66.5566 3.37477C64.906 3.03939 62.6889 3.36366 61.7813 3.55549C58.2467 4.30127 53.5448 7.41035 51.2109 10.8887C50.7177 11.6234 50.3249 12.3718 50.1039 13.1143ZM104.641 9.81932C106.182 9.03047 107.795 8.07653 109.067 7.03844C109.742 6.48709 110.313 5.92011 110.674 5.33157C110.975 4.84482 111.093 4.34629 110.733 3.86476C110.588 3.66967 110.372 3.66578 110.149 3.70232C109.913 3.74147 109.67 3.82497 109.428 3.93262C107.828 4.63339 106.175 6.27047 105.644 7.03844C105.021 7.92907 104.713 8.87127 104.641 9.81932Z" fill="#F39C12"/>
</svg>
