<svg width="238" height="93" viewBox="0 0 238 93" fill="none" xmlns="http://www.w3.org/2000/svg">
<path fill-rule="evenodd" clip-rule="evenodd" d="M100.962 40.0648C89.7941 40.5117 78.7571 41.0612 67.9942 41.6619C52.758 42.5118 37.5278 43.3909 22.3894 44.7829C17.6242 45.2225 12.785 45.5008 8.04961 46.0503C5.07699 46.3946 1.13538 46.8854 0.61809 46.988C0.347527 47.0466 0.22949 47.1346 0.191349 47.1639C-0.0768298 47.369 -0.027897 47.5667 0.123475 47.7206C0.184262 47.7865 0.337975 47.9478 0.764677 47.9697C29.3013 49.4716 58.4816 46.5411 87.0527 46.2334C136.6 45.706 187.65 47.8012 236.804 52.3727C237.233 52.4094 237.65 52.2262 237.71 51.9551C237.781 51.6914 237.471 51.4349 237.042 51.3983C187.805 46.8195 136.672 44.7169 87.0289 45.2517C60.4017 45.5374 33.2489 48.1089 6.58475 47.2298C7.19739 47.1565 7.79814 47.0832 8.34642 47.0173C13.0628 46.4678 17.8817 46.1968 22.6278 45.7572C37.734 44.3653 52.9333 43.4861 68.1491 42.6436C87.0289 41.5887 106.731 40.6802 126.588 40.2553C133.692 40.3212 140.772 40.3872 147.852 40.4678C163.168 40.6436 178.555 41.1564 193.836 41.8451C198.436 42.0576 203.037 42.2773 207.638 42.4678C209.163 42.5337 213.097 42.7242 213.645 42.7095C214.324 42.6949 214.456 42.3433 214.467 42.2847C214.503 42.1528 214.479 41.9696 214.146 41.8158C214.11 41.7938 213.895 41.7205 213.419 41.6765C185.635 39.0831 155.969 38.6509 126.612 39.2736C95.6464 39.0026 64.5615 38.8853 33.6744 38.7607C33.2322 38.7607 32.8711 38.9806 32.8675 39.2516C32.8651 39.5227 33.2215 39.7425 33.6637 39.7498C56.0286 39.8378 78.5067 39.9256 100.962 40.0648Z" fill="#F39C12"/>
</svg>
