<svg width="558" height="35" viewBox="0 0 558 35" fill="none" xmlns="http://www.w3.org/2000/svg">
<path fill-rule="evenodd" clip-rule="evenodd" d="M184.989 3.01999C123.455 2.31156 61.671 4.90053 2.11163 15.7717C1.04899 15.9649 0.607856 16.3449 0.520912 16.4318C0.0121333 16.947 -0.0427031 17.4944 0.0216993 17.9452C0.0603407 18.2189 0.321284 19.3749 1.7478 19.4941C2.73315 19.5746 9.72715 19.0111 12.4256 18.8662C25.129 18.1867 37.8067 17.2175 50.4779 16.0969C79.2078 13.5659 107.899 11.3762 136.674 9.38295C152.829 8.26235 168.991 7.33492 185.143 6.57497C224 7.02901 262.761 8.80011 300.797 10.6291C285.679 11.5597 271.787 12.5032 260.269 13.1151C240.845 14.1455 221.457 15.3627 202.072 16.9663C192.112 17.7874 182.165 18.6794 172.224 19.7324C171.123 19.8516 168.614 19.9739 167.4 20.1188C166.885 20.1768 166.512 20.2702 166.344 20.3346C165.294 20.7403 165.162 21.5711 165.15 21.9897C165.143 22.2441 165.23 23.632 167.001 23.9025C249.349 36.5962 335.262 21.8287 417.907 34.1682C418.876 34.3131 419.784 33.6433 419.929 32.6708C420.074 31.7016 419.404 30.7935 418.431 30.6486C340.595 19.0272 259.857 31.4536 181.92 22.331C188.731 21.6709 195.544 21.0752 202.364 20.5117C221.714 18.9113 241.067 17.6973 260.459 16.6669C279.973 15.6332 306.352 13.6142 333.964 12.3422C357.661 13.6625 381.345 15.1437 405.045 16.3996C415.044 16.9277 425.046 17.3656 435.041 17.9034C439.15 18.1223 449.721 19.0401 451.254 18.6987C452.445 18.4315 452.732 17.5782 452.803 17.1499C452.877 16.6862 452.832 16.1098 452.291 15.5591C452.123 15.3852 451.621 15.0246 450.591 14.7283C422.721 6.74566 377.085 6.87124 334.344 8.80009C325.151 8.28487 315.957 7.79541 306.761 7.35426C285.708 6.33992 264.423 5.32235 243.015 4.52054C303.344 3.02962 363.702 3.45791 424.076 4.53665C449.425 4.99069 517.753 7.7278 544.663 10.1461C544.335 10.4842 544.142 10.9544 544.164 11.4664C544.209 12.4453 545.043 13.2052 546.025 13.1601C551.577 12.9025 554.787 12.5741 556.059 12.236C556.851 12.0267 557.283 11.6918 557.483 11.4728C557.972 10.9447 558.062 10.3779 557.966 9.84018C557.904 9.50529 557.753 9.1382 557.405 8.80009C557.174 8.56824 556.607 8.21404 555.641 7.97253C545.063 5.3417 454.323 1.51938 424.141 0.978403C344.381 -0.44489 264.654 -0.734672 184.989 3.01999ZM429.016 14.0263C413.431 11.9107 395.16 11.1669 376.1 11.2152C385.808 11.7787 395.52 12.3294 405.235 12.8446C413.16 13.2664 421.088 13.627 429.016 14.0263ZM111.48 7.61511C91.0321 9.12212 70.6068 10.7515 50.1655 12.5548C47.8051 12.7608 45.448 12.9637 43.0877 13.1634C65.6929 10.3941 88.5333 8.63266 111.48 7.61511Z" fill="#F39C12"/>
</svg>
